<svg width="544" height="189" viewBox="0 0 544 189" fill="none" xmlns="http://www.w3.org/2000/svg">
<path d="M17.24 152.8C12.0133 152.8 7.93333 151.173 5 147.92C2.12 144.613 0.546667 139.973 0.28 134L0.2 131.2L0.28 128.32C0.493333 122.56 2.06667 118 5 114.64C7.98667 111.28 12.0667 109.6 17.24 109.6C22.0933 109.6 26.0133 111.173 29 114.32V97.2C29 96.6133 29.1867 96.1333 29.56 95.76C29.9333 95.3867 30.4133 95.2 31 95.2H40.76C41.3467 95.2 41.8267 95.3867 42.2 95.76C42.5733 96.1333 42.76 96.6133 42.76 97.2V150C42.76 150.533 42.5733 151.013 42.2 151.44C41.8267 151.813 41.3467 152 40.76 152H31.72C31.1867 152 30.7067 151.813 30.28 151.44C29.9067 151.013 29.72 150.533 29.72 150V147.44C26.7867 151.013 22.6267 152.8 17.24 152.8ZM21.64 142.08C24.04 142.08 25.8267 141.333 27 139.84C28.1733 138.293 28.84 136.32 29 133.92C29.0533 133.227 29.08 132.213 29.08 130.88C29.08 129.6 29.0533 128.613 29 127.92C28.8933 125.733 28.2267 123.92 27 122.48C25.7733 121.04 23.9867 120.32 21.64 120.32C19.1333 120.32 17.32 121.067 16.2 122.56C15.1333 124.053 14.52 126.107 14.36 128.72C14.3067 129.253 14.28 130.08 14.28 131.2C14.28 132.32 14.3067 133.147 14.36 133.68C14.52 136.293 15.1333 138.347 16.2 139.84C17.32 141.333 19.1333 142.08 21.64 142.08ZM71.3888 152.8C64.9888 152.8 59.9488 151.067 56.2688 147.6C52.5888 144.133 50.6688 139.093 50.5088 132.48V129.68C50.7221 123.387 52.6688 118.48 56.3488 114.96C60.0821 111.387 65.0688 109.6 71.3088 109.6C75.8421 109.6 79.6554 110.533 82.7488 112.4C85.8954 114.213 88.2421 116.72 89.7888 119.92C91.3888 123.12 92.1888 126.8 92.1888 130.96V132.88C92.1888 133.413 92.0021 133.893 91.6288 134.32C91.2554 134.693 90.7754 134.88 90.1888 134.88H64.5888V135.44C64.6954 137.947 65.3088 139.973 66.4288 141.52C67.5488 143.067 69.1754 143.84 71.3088 143.84C72.6421 143.84 73.7354 143.573 74.5888 143.04C75.4421 142.453 76.2154 141.76 76.9088 140.96C77.3888 140.373 77.7621 140.027 78.0288 139.92C78.3488 139.76 78.8288 139.68 79.4688 139.68H89.3888C89.8688 139.68 90.2688 139.84 90.5888 140.16C90.9621 140.427 91.1488 140.8 91.1488 141.28C91.1488 142.667 90.3488 144.267 88.7488 146.08C87.2021 147.893 84.9354 149.467 81.9488 150.8C78.9621 152.133 75.4421 152.8 71.3888 152.8ZM78.1088 126.96V126.8C78.1088 124.187 77.4954 122.133 76.2688 120.64C75.0954 119.093 73.4421 118.32 71.3088 118.32C69.2288 118.32 67.5754 119.093 66.3488 120.64C65.1754 122.133 64.5888 124.187 64.5888 126.8V126.96H78.1088ZM112.926 152C112.18 152 111.593 151.84 111.166 151.52C110.793 151.147 110.473 150.64 110.206 150L95.0863 112.88L94.9263 112.16C94.9263 111.68 95.0863 111.28 95.4063 110.96C95.7796 110.587 96.2329 110.4 96.7663 110.4H105.806C106.98 110.4 107.753 110.96 108.126 112.08L117.166 136.64L126.286 112.08C126.66 110.96 127.433 110.4 128.606 110.4H137.646C138.126 110.4 138.553 110.587 138.926 110.96C139.3 111.28 139.486 111.68 139.486 112.16L139.326 112.88L124.206 150C123.94 150.64 123.593 151.147 123.166 151.52C122.74 151.84 122.153 152 121.406 152H112.926ZM161.496 152.8C157.176 152.8 153.55 152.187 150.616 150.96C147.736 149.733 145.603 148.267 144.216 146.56C142.83 144.853 142.136 143.333 142.136 142C142.136 141.467 142.323 141.04 142.696 140.72C143.123 140.347 143.576 140.16 144.056 140.16H153.176C153.496 140.16 153.79 140.293 154.056 140.56C154.696 140.987 155.176 141.333 155.496 141.6C156.67 142.453 157.683 143.093 158.536 143.52C159.443 143.893 160.536 144.08 161.816 144.08C163.363 144.08 164.616 143.787 165.576 143.2C166.59 142.56 167.096 141.68 167.096 140.56C167.096 139.653 166.83 138.933 166.296 138.4C165.816 137.867 164.856 137.36 163.416 136.88C161.976 136.347 159.79 135.787 156.856 135.2C152.43 134.293 149.016 132.827 146.616 130.8C144.27 128.72 143.096 125.947 143.096 122.48C143.096 120.293 143.79 118.213 145.176 116.24C146.563 114.267 148.616 112.667 151.336 111.44C154.11 110.213 157.39 109.6 161.176 109.6C164.963 109.6 168.27 110.187 171.096 111.36C173.923 112.533 176.056 113.973 177.496 115.68C178.99 117.333 179.736 118.853 179.736 120.24C179.736 120.72 179.55 121.147 179.176 121.52C178.856 121.893 178.456 122.08 177.976 122.08H169.656C169.23 122.08 168.83 121.947 168.456 121.68C167.763 121.307 167.15 120.907 166.616 120.48C165.71 119.787 164.856 119.253 164.056 118.88C163.256 118.507 162.27 118.32 161.096 118.32C159.71 118.32 158.59 118.64 157.736 119.28C156.936 119.92 156.536 120.747 156.536 121.76C156.536 122.56 156.75 123.227 157.176 123.76C157.656 124.293 158.616 124.827 160.056 125.36C161.55 125.84 163.736 126.347 166.616 126.88C171.79 127.787 175.55 129.387 177.896 131.68C180.296 133.973 181.496 136.667 181.496 139.76C181.496 143.707 179.736 146.88 176.216 149.28C172.696 151.627 167.79 152.8 161.496 152.8Z" fill="#49CCE5"/>
<path d="M333.318 154.8C328.625 154.8 324.838 153.227 321.958 150.08C319.078 146.88 317.638 142.427 317.638 136.72V114.4C317.638 113.813 317.825 113.333 318.198 112.96C318.572 112.587 319.052 112.4 319.638 112.4H329.638C330.225 112.4 330.705 112.587 331.078 112.96C331.505 113.333 331.718 113.813 331.718 114.4V136.24C331.718 141.467 334.038 144.08 338.678 144.08C340.918 144.08 342.678 143.387 343.958 142C345.238 140.613 345.878 138.693 345.878 136.24V114.4C345.878 113.813 346.065 113.333 346.438 112.96C346.865 112.587 347.345 112.4 347.878 112.4H357.878C358.465 112.4 358.945 112.587 359.318 112.96C359.692 113.333 359.878 113.813 359.878 114.4V152C359.878 152.533 359.692 153.013 359.318 153.44C358.945 153.813 358.465 154 357.878 154H348.598C348.065 154 347.585 153.813 347.158 153.44C346.785 153.013 346.598 152.533 346.598 152V148.96C343.825 152.853 339.398 154.8 333.318 154.8ZM371.288 154C370.702 154 370.222 153.813 369.848 153.44C369.475 153.067 369.288 152.587 369.288 152V114.4C369.288 113.813 369.475 113.333 369.848 112.96C370.222 112.587 370.702 112.4 371.288 112.4H380.488C381.075 112.4 381.555 112.587 381.928 112.96C382.355 113.333 382.568 113.813 382.568 114.4V117.44C384.008 115.68 385.848 114.267 388.088 113.2C390.382 112.133 392.968 111.6 395.848 111.6C400.542 111.6 404.355 113.2 407.288 116.4C410.222 119.547 411.688 123.973 411.688 129.68V152C411.688 152.533 411.502 153.013 411.128 153.44C410.755 153.813 410.275 154 409.688 154H399.608C399.075 154 398.595 153.813 398.168 153.44C397.795 153.013 397.608 152.533 397.608 152V130.16C397.608 127.653 396.995 125.733 395.768 124.4C394.542 123.013 392.782 122.32 390.488 122.32C388.248 122.32 386.488 123.013 385.208 124.4C383.928 125.733 383.288 127.653 383.288 130.16V152C383.288 152.533 383.102 153.013 382.728 153.44C382.355 153.813 381.875 154 381.288 154H371.288ZM422.694 154C422.161 154 421.681 153.813 421.254 153.44C420.881 153.013 420.694 152.533 420.694 152V99.2C420.694 98.6133 420.881 98.1333 421.254 97.76C421.681 97.3867 422.161 97.2 422.694 97.2H431.974C432.561 97.2 433.041 97.3867 433.414 97.76C433.788 98.1333 433.974 98.6133 433.974 99.2V126L445.094 113.76C445.201 113.653 445.388 113.467 445.654 113.2C445.974 112.933 446.294 112.747 446.614 112.64C446.934 112.48 447.308 112.4 447.734 112.4H458.454C458.934 112.4 459.334 112.587 459.654 112.96C460.028 113.28 460.214 113.68 460.214 114.16C460.214 114.747 460.001 115.2 459.574 115.52L445.174 131.04L461.574 150.96C462.001 151.387 462.214 151.787 462.214 152.16C462.214 152.693 462.028 153.147 461.654 153.52C461.334 153.84 460.908 154 460.374 154H449.414C448.721 154 448.188 153.893 447.814 153.68C447.494 153.467 447.094 153.12 446.614 152.64L433.974 137.44V152C433.974 152.533 433.788 153.013 433.414 153.44C433.041 153.813 432.561 154 431.974 154H422.694ZM484.816 154.8C478.416 154.8 473.376 153.067 469.696 149.6C466.016 146.133 464.096 141.093 463.936 134.48V131.68C464.15 125.387 466.096 120.48 469.776 116.96C473.51 113.387 478.496 111.6 484.736 111.6C489.27 111.6 493.083 112.533 496.176 114.4C499.323 116.213 501.67 118.72 503.216 121.92C504.816 125.12 505.616 128.8 505.616 132.96V134.88C505.616 135.413 505.43 135.893 505.056 136.32C504.683 136.693 504.203 136.88 503.616 136.88H478.016V137.44C478.123 139.947 478.736 141.973 479.856 143.52C480.976 145.067 482.603 145.84 484.736 145.84C486.07 145.84 487.163 145.573 488.016 145.04C488.87 144.453 489.643 143.76 490.336 142.96C490.816 142.373 491.19 142.027 491.456 141.92C491.776 141.76 492.256 141.68 492.896 141.68H502.816C503.296 141.68 503.696 141.84 504.016 142.16C504.39 142.427 504.576 142.8 504.576 143.28C504.576 144.667 503.776 146.267 502.176 148.08C500.63 149.893 498.363 151.467 495.376 152.8C492.39 154.133 488.87 154.8 484.816 154.8ZM491.536 128.96V128.8C491.536 126.187 490.923 124.133 489.696 122.64C488.523 121.093 486.87 120.32 484.736 120.32C482.656 120.32 481.003 121.093 479.776 122.64C478.603 124.133 478.016 126.187 478.016 128.8V128.96H491.536ZM515.116 154C514.53 154 514.05 153.813 513.676 153.44C513.303 153.067 513.116 152.587 513.116 152V114.4C513.116 113.813 513.303 113.333 513.676 112.96C514.05 112.587 514.53 112.4 515.116 112.4H524.316C524.903 112.4 525.383 112.613 525.756 113.04C526.183 113.413 526.396 113.867 526.396 114.4V117.6C529.33 114.133 533.276 112.4 538.236 112.4H541.756C542.343 112.4 542.823 112.587 543.196 112.96C543.57 113.333 543.756 113.813 543.756 114.4V122.64C543.756 123.173 543.57 123.653 543.196 124.08C542.823 124.453 542.343 124.64 541.756 124.64H533.996C531.81 124.64 530.103 125.253 528.876 126.48C527.703 127.653 527.116 129.333 527.116 131.52V152C527.116 152.587 526.903 153.067 526.476 153.44C526.103 153.813 525.623 154 525.036 154H515.116Z" fill="#8040E9"/>
<path fill-rule="evenodd" clip-rule="evenodd" d="M286.576 98.3926L303.39 88.6853V150.92L249.493 182.037L195.597 150.92L212.41 141.212L249.493 162.622L286.576 141.212V98.3926Z" fill="#8040E9"/>
<path fill-rule="evenodd" clip-rule="evenodd" d="M212.409 141.212L195.596 150.919V88.6851L249.492 57.5679L303.389 88.6851L286.575 98.3923L249.492 76.9824L212.409 98.3923V141.212Z" fill="#49CCE5"/>
<path fill-rule="evenodd" clip-rule="evenodd" d="M212.335 6.94806L195.596 23.544V104.244H212.335V6.94806Z" fill="#49CCE5"/>
</svg>

