<svg width="561" height="587" viewBox="0 0 561 587" fill="none" xmlns="http://www.w3.org/2000/svg">
<g filter="url(#filter0_d)">
<rect x="40.4606" y="203.566" width="290" height="121" rx="12" transform="rotate(-37.7684 40.4606 203.566)" fill="white"/>
</g>
<g filter="url(#filter1_d)">
<rect x="128.249" y="318.971" width="290" height="121" rx="12" transform="rotate(-37.7684 128.249 318.971)" fill="white"/>
</g>
<g filter="url(#filter2_d)">
<rect x="217.249" y="435.967" width="290" height="121" rx="12" transform="rotate(-37.7684 217.249 435.967)" fill="white"/>
</g>
<path fill-rule="evenodd" clip-rule="evenodd" d="M119.016 261.759L117.902 261.566C115.288 261.111 113.11 263.654 113.684 266.328C113.955 267.585 114.881 268.985 116.992 270.052C119.024 271.079 122.141 271.781 126.684 271.656C127.94 267.288 128.037 264.096 127.551 261.87C127.044 259.559 125.921 258.313 124.771 257.738C122.326 256.514 119.319 257.987 119.106 260.632L119.016 261.759ZM127.52 272.736C107.609 273.637 111.033 259.646 117.754 260.436C117.843 260.446 117.932 260.459 118.021 260.475C118.027 260.385 118.037 260.296 118.05 260.208C118.961 253.501 133.365 253.68 127.52 272.736Z" fill="#FF5A5A"/>
<path fill-rule="evenodd" clip-rule="evenodd" d="M206.805 377.164L205.691 376.97C203.076 376.516 200.899 379.059 201.473 381.732C201.744 382.989 202.67 384.389 204.78 385.456C206.813 386.484 209.93 387.186 214.473 387.061C215.728 382.693 215.826 379.5 215.34 377.275C214.833 374.964 213.71 373.717 212.56 373.142C210.114 371.918 207.107 373.391 206.895 376.036L206.805 377.164ZM215.309 388.14C195.398 389.041 198.822 375.051 205.543 375.84C205.631 375.851 205.72 375.863 205.809 375.879C205.816 375.79 205.826 375.701 205.839 375.612C206.75 368.905 221.154 369.084 215.309 388.14Z" fill="#FF5A5A"/>
<path fill-rule="evenodd" clip-rule="evenodd" d="M295.804 494.16L294.69 493.966C292.076 493.512 289.898 496.055 290.472 498.728C290.743 499.985 291.669 501.385 293.78 502.452C295.812 503.48 298.929 504.182 303.472 504.057C304.728 499.689 304.826 496.496 304.339 494.271C303.832 491.96 302.71 490.714 301.559 490.138C299.114 488.914 296.107 490.387 295.894 493.032L295.804 494.16ZM304.309 505.136C284.397 506.037 287.821 492.047 294.542 492.837C294.631 492.847 294.72 492.859 294.809 492.875C294.815 492.786 294.825 492.697 294.839 492.608C295.75 485.901 310.154 486.08 304.309 505.136Z" fill="#FF5A5A"/>
<rect x="214.305" y="103.028" width="71" height="67" rx="10" transform="rotate(-37.7684 214.305 103.028)" fill="#44AEFA"/>
<rect x="302.094" y="218.432" width="71" height="67" rx="10" transform="rotate(-37.7684 302.094 218.432)" fill="#6BB2A0"/>
<path d="M397.218 343.333C393.836 338.967 394.633 332.686 398.999 329.304L439.314 298.068C443.679 294.685 449.961 295.482 453.343 299.848L482.129 337.001C485.512 341.367 484.715 347.648 480.349 351.031L440.034 382.267C435.668 385.649 429.387 384.852 426.004 380.486L397.218 343.333Z" fill="#CB44FA"/>
<rect x="64.7335" y="205.744" width="46" height="8" rx="4" transform="rotate(-37.2604 64.7335 205.744)" fill="black" fill-opacity="0.6"/>
<rect x="152.522" y="321.148" width="46" height="8" rx="4" transform="rotate(-37.2604 152.522 321.148)" fill="black" fill-opacity="0.6"/>
<rect x="241.522" y="438.145" width="46" height="8" rx="4" transform="rotate(-37.2604 241.522 438.145)" fill="black" fill-opacity="0.6"/>
<rect x="90.7673" y="239.968" width="144" height="6" rx="3" transform="rotate(-37.2604 90.7673 239.968)" fill="#606060"/>
<rect x="178.556" y="355.372" width="144" height="6" rx="3" transform="rotate(-37.2604 178.556 355.372)" fill="#606060"/>
<rect x="267.555" y="472.368" width="144" height="6" rx="3" transform="rotate(-37.2604 267.555 472.368)" fill="#606060"/>
<rect x="97.4271" y="248.722" width="126" height="6" rx="3" transform="rotate(-37.2604 97.4271 248.722)" fill="#606060"/>
<rect x="185.216" y="364.127" width="126" height="6" rx="3" transform="rotate(-37.2604 185.216 364.127)" fill="#606060"/>
<rect x="274.215" y="481.123" width="126" height="6" rx="3" transform="rotate(-37.2604 274.215 481.123)" fill="#606060"/>
<rect x="74.8354" y="220.676" width="107" height="11" rx="5.5" transform="rotate(-37.2604 74.8354 220.676)" fill="black"/>
<rect x="162.624" y="336.08" width="107" height="11" rx="5.5" transform="rotate(-37.2604 162.624 336.08)" fill="black"/>
<rect x="251.624" y="453.076" width="107" height="11" rx="5.5" transform="rotate(-37.2604 251.624 453.076)" fill="black"/>
<defs>
<filter id="filter0_d" x="0.460571" y="0.949753" width="383.352" height="353.266" filterUnits="userSpaceOnUse" color-interpolation-filters="sRGB">
<feFlood flood-opacity="0" result="BackgroundImageFix"/>
<feColorMatrix in="SourceAlpha" type="matrix" values="0 0 0 0 0 0 0 0 0 0 0 0 0 0 0 0 0 0 127 0" result="hardAlpha"/>
<feOffset dy="15"/>
<feGaussianBlur stdDeviation="20"/>
<feColorMatrix type="matrix" values="0 0 0 0 0 0 0 0 0 0 0 0 0 0 0 0 0 0 0.15 0"/>
<feBlend mode="normal" in2="BackgroundImageFix" result="effect1_dropShadow"/>
<feBlend mode="normal" in="SourceGraphic" in2="effect1_dropShadow" result="shape"/>
</filter>
<filter id="filter1_d" x="88.2492" y="116.354" width="383.352" height="353.266" filterUnits="userSpaceOnUse" color-interpolation-filters="sRGB">
<feFlood flood-opacity="0" result="BackgroundImageFix"/>
<feColorMatrix in="SourceAlpha" type="matrix" values="0 0 0 0 0 0 0 0 0 0 0 0 0 0 0 0 0 0 127 0" result="hardAlpha"/>
<feOffset dy="15"/>
<feGaussianBlur stdDeviation="20"/>
<feColorMatrix type="matrix" values="0 0 0 0 0 0 0 0 0 0 0 0 0 0 0 0 0 0 0.15 0"/>
<feBlend mode="normal" in2="BackgroundImageFix" result="effect1_dropShadow"/>
<feBlend mode="normal" in="SourceGraphic" in2="effect1_dropShadow" result="shape"/>
</filter>
<filter id="filter2_d" x="177.249" y="233.35" width="383.352" height="353.266" filterUnits="userSpaceOnUse" color-interpolation-filters="sRGB">
<feFlood flood-opacity="0" result="BackgroundImageFix"/>
<feColorMatrix in="SourceAlpha" type="matrix" values="0 0 0 0 0 0 0 0 0 0 0 0 0 0 0 0 0 0 127 0" result="hardAlpha"/>
<feOffset dy="15"/>
<feGaussianBlur stdDeviation="20"/>
<feColorMatrix type="matrix" values="0 0 0 0 0 0 0 0 0 0 0 0 0 0 0 0 0 0 0.15 0"/>
<feBlend mode="normal" in2="BackgroundImageFix" result="effect1_dropShadow"/>
<feBlend mode="normal" in="SourceGraphic" in2="effect1_dropShadow" result="shape"/>
</filter>
</defs>
</svg>

