<?xml version="1.0" encoding="UTF-8" standalone="no"?>
<!DOCTYPE svg PUBLIC "-//W3C//DTD SVG 1.1//EN" "http://www.w3.org/Graphics/SVG/1.1/DTD/svg11.dtd">
<svg width="100%" height="100%" viewBox="0 0 8268 4725" version="1.1" xmlns="http://www.w3.org/2000/svg" xmlns:xlink="http://www.w3.org/1999/xlink" xml:space="preserve" xmlns:serif="http://www.serif.com/" style="fill-rule:evenodd;clip-rule:evenodd;stroke-linejoin:round;stroke-miterlimit:2;">
    <g transform="matrix(1.52865,0,0,1.52865,-1322.37,-2059.91)">
        <g transform="matrix(0.406989,0,0,0.406989,2652.25,1873.94)">
            <g transform="matrix(1,0,0,1,138.492,-5.62787)">
                <path d="M4333.13,2904.92L4333.13,4587.65L2875.84,5429.02L1418.55,4587.65" style="fill:rgb(128,64,233);"/>
            </g>
            <g transform="matrix(1,0,0,1,138.492,-5.62787)">
                <path d="M1418.55,4587.65L1418.55,2904.92L2875.84,2063.55L4333.13,2904.92" style="fill:rgb(73,204,229);"/>
            </g>
            <g transform="matrix(1,0,0,1.57793,356.432,-1825.51)">
                <path d="M1913.48,892.955L1200.61,1453.57L1200.61,3794.12L1913.48,3794.12L1913.48,892.955Z" style="fill:rgb(73,204,229);"/>
            </g>
        </g>
        <g transform="matrix(13.5541,0,0,13.5541,-19540.4,-42004.7)">
            <text x="1776.86px" y="3373.29px" style="font-family:'ArialMT', 'Arial', sans-serif;font-size:50px;fill:rgb(128,64,233);">unker</text>
        </g>
        <g transform="matrix(17.3939,0,0,17.3939,-30083.1,-54960.2)">
            <text x="1776.86px" y="3373.29px" style="font-family:'ArialMT', 'Arial', sans-serif;font-size:50px;fill:rgb(73,204,229);">DEVS</text>
        </g>
    </g>
</svg>
