<?xml version="1.0" encoding="UTF-8" standalone="no"?>
<!DOCTYPE svg PUBLIC "-//W3C//DTD SVG 1.1//EN" "http://www.w3.org/Graphics/SVG/1.1/DTD/svg11.dtd">
<svg width="100%" height="100%" viewBox="0 0 5906 5906" version="1.1" xmlns="http://www.w3.org/2000/svg" xmlns:xlink="http://www.w3.org/1999/xlink" xml:space="preserve" xmlns:serif="http://www.serif.com/" style="fill-rule:evenodd;clip-rule:evenodd;stroke-linejoin:round;stroke-miterlimit:2;">
    <g transform="matrix(1.20492,0,0,1.20492,-605.066,185.833)">
        <path d="M3914.48,2397.51L4350.52,2145.76L4350.52,3759.76L2952.76,4566.76L1554.99,3759.76L1991.04,3508.01L2952.76,4063.26L3914.48,3508.01L3914.48,2397.51Z" style="fill:rgb(128,64,233);"/>
        <g transform="matrix(-1,0,0,-1,5905.51,5905.51)">
            <path d="M3914.48,2397.51L4350.52,2145.76L4350.52,3759.76L2952.76,4566.76L1554.99,3759.76L1991.04,3508.01L2952.76,4063.26L3914.48,3508.01L3914.48,2397.51Z" style="fill:rgb(73,204,229);"/>
        </g>
        <g transform="matrix(1.03629,0,0,1.32809,-56.436,-836.386)">
            <path d="M1973.9,649.32L1554.99,973.396L1554.99,2549.26L1973.9,2549.26L1973.9,649.32Z" style="fill:rgb(73,204,229);"/>
        </g>
    </g>
</svg>
